<svg xmlns="http://www.w3.org/2000/svg" viewBox="0 0 183.16 151.17" width="157px" height="129px"><defs><style>.cls-1{fill:#FEF3F2;}</style></defs><g id="Group_80" data-name="Group 80"><g id="Group_59" data-name="Group 59"><g id="Group_57" data-name="Group 57"><path id="Path_73" data-name="Path 73" class="cls-1" d="M183.58.42,157.82,26.16a13.82,13.82,0,0,0-1,1.14L142.63,46a15.09,15.09,0,0,0-2.56,4.67l-6.75,20.67s-3.69,6.21,3.23,12.41c8.84,7.94,9.84,14.53,9.84,14.53l4.41,19s2.11,26-19.61,32.27c0,0-24.33,6.12-40.14-2.57,0,0-16.53-24.37-6.07-50.63l18.5-34.75,23.28-29.61L166.11,2.42l.38-.27,2.07-.84Z" transform="translate(-0.42 -0.42)"/></g><g id="Group_58" data-name="Group 58"><path id="Path_74" data-name="Path 74" class="cls-1" d="M102.48.42,76.72,26.16a13.82,13.82,0,0,0-1,1.14L61.53,46A14.86,14.86,0,0,0,59,50.65L52.22,71.32s-3.69,6.21,3.23,12.41c8.84,7.94,9.84,14.53,9.84,14.53l4.41,19s2.11,26-19.6,32.27c0,0-24.33,6.12-40.14-2.57,0,0-16.53-24.37-6.08-50.63l18.5-34.75L45.66,31.93,85,2.42l.37-.27,2.08-.84Z" transform="translate(-0.42 -0.42)"/></g></g></g></svg>
